<?xml version="1.0" encoding="utf-8"?>
<!-- Generator: Adobe Illustrator 21.0.2, SVG Export Plug-In . SVG Version: 6.00 Build 0)  -->
<svg version="1.1" id="Ebene_1" xmlns="http://www.w3.org/2000/svg" xmlns:xlink="http://www.w3.org/1999/xlink" x="0px" y="0px"
	 viewBox="0 0 1024 768" style="enable-background:new 0 0 1024 768;" xml:space="preserve">
<style type="text/css">
	.st0{fill:#B3B3B3;}
	.st1{fill:#46051E;}
	.st2{fill:#00FFFF;}
</style>
<g>
	<path class="st0" d="M892.9,629.6c0,0,9.7,0,18.3-1.6c8.6-1.6,23.2-3.8,29.7,1.6c0,0,3.8,2.7,4.3,7c0,0-21,12.4-64.7,12.9
		s-603.2,0-670.7,0.5c-67.4,0.5-103.1-0.5-131.1-13.5c0,0,1.1-4.3,5.4-7.6s14.6-3.8,27.5-1.6c12.9,2.2,42.6,3.2,42.6,3.2
		s56.1,5.4,357.7,5.4S892.9,629.6,892.9,629.6z"/>
	<path class="st1" d="M940.1,629c-6.8-4.6-20.6-2.5-28.8-1c-8.6,1.6-18.3,1.6-18.3,1.6s-79.3,6.5-380.9,6.5s-357.7-5.4-357.7-5.4
		s-29.7-1.1-42.6-3.2c-12.9-2.2-23.2-1.6-27.5,1.6c-0.3,0.2-0.6,0.5-0.9,0.7l0,0c3.7,1.8,7.9,3.4,12.7,4.7c23.7,6.5,33.5,6.5,72.8,7
		s240.6,3.8,343.7,3.8s281.6-4.3,343.7-3.8C911.5,642,935.5,631.3,940.1,629"/>
</g>
<g>
	<path class="st2" d="M83.6,629.7c8.1,3.9,16.9,5.7,25.7,7.6c8.8,1.8,17.7,2.6,26.6,2.9c8.9,0.3,17.9,0.3,26.8,0.4l26.9,0.1l107.5,1
		c71.6,0.6,143.3,1.5,214.9,1.5c71.6,0.1,143.3-1.3,214.9-2c35.8-0.3,71.7-0.8,107.5-0.7c17.9,0,35.8,0.8,53.7-0.6
		c8.9-0.6,17.8-1.7,26.6-3.3c4.4-0.8,8.8-1.8,13.1-3c4.3-1.2,8.6-2.6,12.6-4.6l0.1,0.2c-4,2-8.3,3.4-12.6,4.7
		c-4.3,1.2-8.7,2.3-13.1,3.2c-8.8,1.7-17.7,2.9-26.6,3.6c-17.9,1.6-35.8,0.9-53.7,1.1c-35.8,0.2-71.6,0.8-107.5,1.3l-107.5,1.6
		c-35.8,0.5-71.7,0.9-107.5,0.9c-71.7-0.1-143.3-1.1-215-2L189.6,642l-26.9-0.4c-9-0.1-17.9-0.2-26.9-0.6
		c-8.9-0.4-17.9-1.2-26.7-3.2c-8.7-2-17.6-3.9-25.7-7.9L83.6,629.7z"/>
</g>
<g>
</g>
<g>
</g>
<g>
</g>
<g>
</g>
<g>
</g>
<g>
</g>
<g>
</g>
<g>
</g>
<g>
</g>
<g>
</g>
<g>
</g>
<g>
</g>
<g>
</g>
<g>
</g>
<g>
</g>
</svg>
